# xmcd CD database file
#
# Track frame offsets:
#	150
#	12406
#	25677
#	41095
#	80656
#	95598
#	108225
#	119816
#	133172
#	147880
#	161092
#	171223
#	184740
#	199521
#	212796
#	226915
#	239691
#	253013
#
# Disc length: 3560 seconds
#
# Revision: 0
# Processed by: cddbd v1.5.2PL0 Copyright (c) Steve Scherf et al.
# Submitted via: CDex 1.70beta2
#
DISCID=040de612
DTITLE=Erroll Garner - Erroll Garner CD5
DYEAR=2005
DGENRE=Jazz
TTITLE0=1-Four O´clock Jump
TTITLE1=2-I Only Have Eyes For You
TTITLE2=3-How High The Moon
TTITLE3=4-Geronimo (Part 1 and 2)
TTITLE4=5-Robbin´s Nest
TTITLE5=6-I Didn´t Know
TTITLE6=7-Bouncing With Me
TTITLE7=8-Erroll´s Bounce
TTITLE8=9-Impressions
TTITLE9=10-Loose Nut
TTITLE10=11-Man O´mine (The Man I Love)
TTITLE11=12-Body And Soul
TTITLE12=13-Boogie Woogie Boogie
TTITLE13=14-Penthouse Serenade
TTITLE14=15-My Old Kentucky Home
TTITLE15=16-Sophisticated Lady
TTITLE16=17-All The Things You Are
TTITLE17=18-Ja - Da
EXTD=YEAR: 2005
EXTT0=
EXTT1=
EXTT2=
EXTT3=
EXTT4=
EXTT5=
EXTT6=
EXTT7=
EXTT8=
EXTT9=
EXTT10=
EXTT11=
EXTT12=
EXTT13=
EXTT14=
EXTT15=
EXTT16=
EXTT17=
PLAYORDER=
